{
    "asset" : {
        "generator" : "Khronos glTF Blender I/O v3.2.43",
        "version" : "2.0"
    },
    "scene" : 0,
    "scenes" : [
        {
            "name" : "Scene",
            "nodes" : [
                2
            ]
        }
    ],
    "nodes" : [
        {
            "mesh" : 0,
            "name" : "Object_2"
        },
        {
            "children" : [
                0
            ],
            "name" : "sdsdfs.unity_1.obj.cleaner.gles"
        },
        {
            "children" : [
                1
            ],
            "name" : "Sketchfab_model",
            "rotation" : [
                -0.7071068286895752,
                0,
                0,
                0.7071067094802856
            ]
        }
    ],
    "materials" : [
        {
            "doubleSided" : true,
            "name" : "orange_halb3DC_null_color.002",
            "normalTexture" : {
                "index" : 0
            },
            "pbrMetallicRoughness" : {
                "baseColorTexture" : {
                    "index" : 1
                },
                "metallicFactor" : 0,
                "roughnessFactor" : 0.6000000238418579
            }
        }
    ],
    "meshes" : [
        {
            "name" : "Object_0",
            "primitives" : [
                {
                    "attributes" : {
                        "POSITION" : 0,
                        "NORMAL" : 1,
                        "TEXCOORD_0" : 2
                    },
                    "indices" : 3,
                    "material" : 0
                }
            ]
        }
    ],
    "textures" : [
        {
            "sampler" : 0,
            "source" : 0
        },
        {
            "sampler" : 0,
            "source" : 1
        }
    ],
    "images" : [
        {
            "bufferView" : 4,
            "mimeType" : "image/jpeg",
            "name" : "orange_normal_map_baseColor"
        },
        {
            "bufferView" : 5,
            "mimeType" : "image/jpeg",
            "name" : "orange_halb3DC_null_color_baseColor"
        }
    ],
    "accessors" : [
        {
            "bufferView" : 0,
            "componentType" : 5126,
            "count" : 613,
            "max" : [
                13.927929878234863,
                13.892550468444824,
                7.208002090454102
            ],
            "min" : [
                -13.868430137634277,
                -13.88306999206543,
                -13.88012981414795
            ],
            "type" : "VEC3"
        },
        {
            "bufferView" : 1,
            "componentType" : 5126,
            "count" : 613,
            "type" : "VEC3"
        },
        {
            "bufferView" : 2,
            "componentType" : 5126,
            "count" : 613,
            "type" : "VEC2"
        },
        {
            "bufferView" : 3,
            "componentType" : 5123,
            "count" : 2760,
            "type" : "SCALAR"
        }
    ],
    "bufferViews" : [
        {
            "buffer" : 0,
            "byteLength" : 7356,
            "byteOffset" : 0
        },
        {
            "buffer" : 0,
            "byteLength" : 7356,
            "byteOffset" : 7356
        },
        {
            "buffer" : 0,
            "byteLength" : 4904,
            "byteOffset" : 14712
        },
        {
            "buffer" : 0,
            "byteLength" : 5520,
            "byteOffset" : 19616
        },
        {
            "buffer" : 0,
            "byteLength" : 384729,
            "byteOffset" : 25136
        },
        {
            "buffer" : 0,
            "byteLength" : 423605,
            "byteOffset" : 409868
        }
    ],
    "samplers" : [
        {
            "magFilter" : 9729,
            "minFilter" : 9987
        }
    ],
    "buffers" : [
        {
            "byteLength" : 833476,
            "uri" : "data:application/octet-stream;base64,"
        }
    ]
}
