{
    "asset" : {
        "generator" : "Khronos glTF Blender I/O v3.2.43",
        "version" : "2.0"
    },
    "scene" : 0,
    "scenes" : [
        {
            "name" : "Scene",
            "nodes" : [
                0,
                1,
                2,
                3,
                4,
                5,
                6,
                7,
                8,
                9,
                10,
                11,
                12,
                13,
                14,
                15,
                16,
                17,
                18,
                19,
                20,
                21,
                22,
                23
            ]
        }
    ],
    "nodes" : [
        {
            "name" : "polySurface139",
            "rotation" : [
                0,
                -0.7071068286895752,
                0,
                0.7071067094802856
            ],
            "scale" : [
                0.8122478127479553,
                0.8122476935386658,
                0.8122478127479553
            ],
            "translation" : [
                -298.0597839355469,
                -0.6374584436416626,
                340.2518615722656
            ]
        },
        {
            "mesh" : 0,
            "name" : "Assets:polySurface14_MTRLampadaBranca_0",
            "scale" : [
                0.261150985956192,
                0.261150985956192,
                0.261150985956192
            ]
        },
        {
            "name" : "polySurface134",
            "rotation" : [
                0,
                0,
                -0.7071068286895752,
                0.7071067094802856
            ],
            "scale" : [
                0.700350284576416,
                0.700350284576416,
                0.7003502249717712
            ],
            "translation" : [
                -369.74786376953125,
                -196.7325439453125,
                28.48162269592285
            ]
        },
        {
            "name" : "polySurface133",
            "rotation" : [
                0,
                0,
                -0.7071068286895752,
                0.7071067094802856
            ],
            "scale" : [
                0.700350284576416,
                0.700350284576416,
                0.7003502249717712
            ],
            "translation" : [
                -369.74786376953125,
                -197.77645874023438,
                28.48162269592285
            ]
        },
        {
            "name" : "polySurface132",
            "rotation" : [
                0,
                0,
                0.7071068286895752,
                0.7071067094802856
            ],
            "scale" : [
                0.700350284576416,
                0.700350284576416,
                0.7003502249717712
            ],
            "translation" : [
                -266.48291015625,
                350.76995849609375,
                28.48162269592285
            ]
        },
        {
            "name" : "polySurface38",
            "rotation" : [
                0,
                0,
                0.7071068286895752,
                0.7071067094802856
            ],
            "scale" : [
                0.700350284576416,
                0.700350284576416,
                0.7003502249717712
            ],
            "translation" : [
                -266.48291015625,
                351.81805419921875,
                28.48162269592285
            ]
        },
        {
            "name" : "BaseLateralLampada6",
            "rotation" : [
                0,
                0,
                -0.7071068286895752,
                0.7071067094802856
            ],
            "scale" : [
                0.10358565300703049,
                0.03769417107105255,
                0.1035856381058693
            ],
            "translation" : [
                16.490558624267578,
                3.59857177734375,
                -1.0412483215332031
            ]
        },
        {
            "name" : "BaseLateralLampada4",
            "rotation" : [
                0,
                0,
                -0.7071068286895752,
                0.7071067094802856
            ],
            "scale" : [
                0.10358565300703049,
                0.03769417107105255,
                0.1035856381058693
            ],
            "translation" : [
                16.490558624267578,
                4.649009704589844,
                -1.0412483215332031
            ]
        },
        {
            "name" : "BaseLateral1",
            "rotation" : [
                0,
                0,
                -1,
                6.123234262925839e-17
            ],
            "scale" : [
                0.11010387539863586,
                2.429617404937744,
                1
            ],
            "translation" : [
                6.6915483474731445,
                4.111061096191406,
                -0.7610816955566406
            ]
        },
        {
            "name" : "Parafuso21",
            "rotation" : [
                0.7071068286895752,
                0,
                0,
                0.7071067094802856
            ],
            "scale" : [
                0.28868991136550903,
                0.23696333169937134,
                0.2886899411678314
            ],
            "translation" : [
                7.2345476150512695,
                4.1190185546875,
                -0.6701393127441406
            ]
        },
        {
            "name" : "BaseCaboSustentacao1",
            "scale" : [
                0.2288321703672409,
                0.05068276822566986,
                0.2288321703672409
            ],
            "translation" : [
                -18.687877655029297,
                1.7253551483154297,
                -0.5623397827148438
            ]
        },
        {
            "name" : "BaseCaboSustentacao2",
            "scale" : [
                0.2288321703672409,
                0.05068276822566986,
                0.2288321703672409
            ],
            "translation" : [
                11.308032989501953,
                1.7253551483154297,
                -0.5623397827148438
            ]
        },
        {
            "name" : "BaseCaboSustentacao3",
            "scale" : [
                0.2288321703672409,
                0.05068276822566986,
                0.2288321703672409
            ],
            "translation" : [
                11.308032989501953,
                1.7253551483154297,
                2.3507461547851562
            ]
        },
        {
            "name" : "CaboSustentacao3",
            "scale" : [
                0.045603860169649124,
                0.37583455443382263,
                0.045603860169649124
            ],
            "translation" : [
                11.307849884033203,
                2.4794445037841797,
                2.3505630493164062
            ]
        },
        {
            "name" : "CaboSustentacao2",
            "scale" : [
                0.045603860169649124,
                0.37583455443382263,
                0.045603860169649124
            ],
            "translation" : [
                11.307849884033203,
                2.4794445037841797,
                -0.5625228881835938
            ]
        },
        {
            "name" : "CaboSustentacao1",
            "scale" : [
                0.045603860169649124,
                0.37583455443382263,
                0.045603860169649124
            ],
            "translation" : [
                -18.688091278076172,
                2.4794445037841797,
                -0.5625228881835938
            ]
        },
        {
            "name" : "BaseParafuso2",
            "scale" : [
                0.690655529499054,
                0.1969345360994339,
                0.690655529499054
            ],
            "translation" : [
                12.925765991210938,
                1.4021739959716797,
                0.8282699584960938
            ]
        },
        {
            "name" : "Parafuso1",
            "scale" : [
                0.19769620895385742,
                0.1622735857963562,
                0.19769620895385742
            ],
            "translation" : [
                12.938156127929688,
                1.2378063201904297,
                0.8399581909179688
            ]
        },
        {
            "name" : "BaseLateralLampada",
            "rotation" : [
                0,
                0,
                -0.7071068286895752,
                0.7071067094802856
            ],
            "scale" : [
                0.10358565300703049,
                0.03769417107105255,
                0.1035856381058693
            ],
            "translation" : [
                10.128345489501953,
                1.0333385467529297,
                0.8214187622070312
            ]
        },
        {
            "name" : "polySurface134.001",
            "rotation" : [
                0,
                0,
                -0.7071068286895752,
                0.7071067094802856
            ],
            "scale" : [
                0.700350284576416,
                0.700350284576416,
                0.7003502249717712
            ],
            "translation" : [
                -369.74786376953125,
                -196.7325439453125,
                31.05369758605957
            ]
        },
        {
            "name" : "polySurface133.001",
            "rotation" : [
                0,
                0,
                -0.7071068286895752,
                0.7071067094802856
            ],
            "scale" : [
                0.700350284576416,
                0.700350284576416,
                0.7003502249717712
            ],
            "translation" : [
                -369.74786376953125,
                -197.77645874023438,
                31.05369758605957
            ]
        },
        {
            "name" : "polySurface132.001",
            "rotation" : [
                0,
                0,
                0.7071068286895752,
                0.7071067094802856
            ],
            "scale" : [
                0.700350284576416,
                0.700350284576416,
                0.7003502249717712
            ],
            "translation" : [
                -266.48291015625,
                350.76995849609375,
                31.05369758605957
            ]
        },
        {
            "name" : "polySurface38.001",
            "rotation" : [
                0,
                0,
                0.7071068286895752,
                0.7071067094802856
            ],
            "scale" : [
                0.700350284576416,
                0.700350284576416,
                0.7003502249717712
            ],
            "translation" : [
                -266.48291015625,
                351.81805419921875,
                31.05369758605957
            ]
        },
        {
            "name" : "polySurface139.001",
            "rotation" : [
                0,
                -0.7071068286895752,
                0,
                0.7071067094802856
            ],
            "scale" : [
                0.8122478127479553,
                0.8122476935386658,
                0.8122478127479553
            ],
            "translation" : [
                -298.0597839355469,
                -0.0917016789317131,
                340.2518615722656
            ]
        }
    ],
    "materials" : [
        {
            "doubleSided" : true,
            "emissiveFactor" : [
                0.8376619815826416,
                0.8376619815826416,
                0.8376619815826416
            ],
            "name" : "MTRLampadaBranca",
            "pbrMetallicRoughness" : {
                "baseColorFactor" : [
                    0.9480519890785217,
                    0.9480519890785217,
                    0.9480519890785217,
                    1
                ],
                "metallicFactor" : 0,
                "roughnessFactor" : 0.8942628502845764
            }
        },
        {
            "doubleSided" : true,
            "name" : "MTRPlasticoVermelho",
            "pbrMetallicRoughness" : {
                "baseColorFactor" : [
                    0.3896099925041199,
                    0.017532499507069588,
                    0.017532499507069588,
                    1
                ],
                "metallicFactor" : 0,
                "roughnessFactor" : 0.8942628502845764
            }
        }
    ],
    "meshes" : [
        {
            "name" : "Assets:polySurface14_MTRLampadaBranca_0",
            "primitives" : [
                {
                    "attributes" : {
                        "POSITION" : 0,
                        "NORMAL" : 1,
                        "TEXCOORD_0" : 2
                    },
                    "indices" : 3,
                    "material" : 0
                },
                {
                    "attributes" : {
                        "POSITION" : 4,
                        "NORMAL" : 5,
                        "TEXCOORD_0" : 6
                    },
                    "indices" : 7,
                    "material" : 1
                }
            ]
        }
    ],
    "accessors" : [
        {
            "bufferView" : 0,
            "componentType" : 5126,
            "count" : 654,
            "max" : [
                3.8339672088623047,
                1.3426036834716797,
                0.3385009765625
            ],
            "min" : [
                -3.8134946823120117,
                -1.4367008209228516,
                -0.7288970947265625
            ],
            "type" : "VEC3"
        },
        {
            "bufferView" : 1,
            "componentType" : 5126,
            "count" : 654,
            "type" : "VEC3"
        },
        {
            "bufferView" : 2,
            "componentType" : 5126,
            "count" : 654,
            "type" : "VEC2"
        },
        {
            "bufferView" : 3,
            "componentType" : 5123,
            "count" : 828,
            "type" : "SCALAR"
        },
        {
            "bufferView" : 4,
            "componentType" : 5126,
            "count" : 276,
            "max" : [
                3.9100475311279297,
                1.5123348236083984,
                1.3653030395507812
            ],
            "min" : [
                -3.9500608444213867,
                -1.4605579376220703,
                -0.41168975830078125
            ],
            "type" : "VEC3"
        },
        {
            "bufferView" : 5,
            "componentType" : 5126,
            "count" : 276,
            "type" : "VEC3"
        },
        {
            "bufferView" : 6,
            "componentType" : 5126,
            "count" : 276,
            "type" : "VEC2"
        },
        {
            "bufferView" : 7,
            "componentType" : 5123,
            "count" : 588,
            "type" : "SCALAR"
        }
    ],
    "bufferViews" : [
        {
            "buffer" : 0,
            "byteLength" : 7848,
            "byteOffset" : 0
        },
        {
            "buffer" : 0,
            "byteLength" : 7848,
            "byteOffset" : 7848
        },
        {
            "buffer" : 0,
            "byteLength" : 5232,
            "byteOffset" : 15696
        },
        {
            "buffer" : 0,
            "byteLength" : 1656,
            "byteOffset" : 20928
        },
        {
            "buffer" : 0,
            "byteLength" : 3312,
            "byteOffset" : 22584
        },
        {
            "buffer" : 0,
            "byteLength" : 3312,
            "byteOffset" : 25896
        },
        {
            "buffer" : 0,
            "byteLength" : 2208,
            "byteOffset" : 29208
        },
        {
            "buffer" : 0,
            "byteLength" : 1176,
            "byteOffset" : 31416
        }
    ],
    "buffers" : [
        {
            "byteLength" : 32592,
            "uri" : "data:application/octet-stream;base64,"
        }
    ]
}
