{
    "asset" : {
        "generator" : "Khronos glTF Blender I/O v3.2.43",
        "version" : "2.0"
    },
    "extensionsUsed" : [
        "KHR_materials_unlit"
    ],
    "scene" : 0,
    "scenes" : [
        {
            "name" : "Scene",
            "nodes" : [
                4
            ]
        }
    ],
    "nodes" : [
        {
            "mesh" : 0,
            "name" : "pig_head1.m__0"
        },
        {
            "children" : [
                0
            ],
            "name" : "pig_head1.m",
            "rotation" : [
                -0.7071068286895752,
                0,
                0,
                0.7071067094802856
            ],
            "scale" : [
                100,
                99.99999237060547,
                99.99999237060547
            ]
        },
        {
            "children" : [
                1
            ],
            "name" : "RootNode"
        },
        {
            "children" : [
                2
            ],
            "name" : "fpig.fbx",
            "rotation" : [
                0.7071068286895752,
                0,
                0,
                0.7071067094802856
            ],
            "scale" : [
                0.009999999776482582,
                0.010000000707805157,
                0.010000000707805157
            ]
        },
        {
            "children" : [
                3
            ],
            "name" : "Sketchfab_model",
            "rotation" : [
                -0.5,
                -0.5,
                -0.5,
                0.5
            ],
            "translation" : [
                0.3511618375778198,
                0,
                0.35193756222724915
            ]
        }
    ],
    "materials" : [
        {
            "doubleSided" : true,
            "extensions" : {
                "KHR_materials_unlit" : {}
            },
            "name" : "Scene_-_Root",
            "pbrMetallicRoughness" : {
                "baseColorTexture" : {
                    "index" : 0,
                    "texCoord" : 0
                },
                "metallicFactor" : 0,
                "roughnessFactor" : 0.9
            }
        }
    ],
    "meshes" : [
        {
            "name" : "pig_head1.m__0",
            "primitives" : [
                {
                    "attributes" : {
                        "POSITION" : 0,
                        "NORMAL" : 1,
                        "TEXCOORD_0" : 2,
                        "COLOR_0" : 3
                    },
                    "indices" : 4,
                    "material" : 0
                }
            ]
        }
    ],
    "textures" : [
        {
            "sampler" : 0,
            "source" : 0
        }
    ],
    "images" : [
        {
            "bufferView" : 5,
            "mimeType" : "image/png",
            "name" : "Scene_-_Root_baseColor"
        }
    ],
    "accessors" : [
        {
            "bufferView" : 0,
            "componentType" : 5126,
            "count" : 258,
            "max" : [
                0.7278692722320557,
                2.260774612426758,
                3.0271358489990234
            ],
            "min" : [
                -0.7286449670791626,
                -2.963866949081421,
                0.007481098175048828
            ],
            "type" : "VEC3"
        },
        {
            "bufferView" : 1,
            "componentType" : 5126,
            "count" : 258,
            "type" : "VEC3"
        },
        {
            "bufferView" : 2,
            "componentType" : 5126,
            "count" : 258,
            "type" : "VEC2"
        },
        {
            "bufferView" : 3,
            "componentType" : 5123,
            "count" : 258,
            "normalized" : true,
            "type" : "VEC4"
        },
        {
            "bufferView" : 4,
            "componentType" : 5123,
            "count" : 1173,
            "type" : "SCALAR"
        }
    ],
    "bufferViews" : [
        {
            "buffer" : 0,
            "byteLength" : 3096,
            "byteOffset" : 0
        },
        {
            "buffer" : 0,
            "byteLength" : 3096,
            "byteOffset" : 3096
        },
        {
            "buffer" : 0,
            "byteLength" : 2064,
            "byteOffset" : 6192
        },
        {
            "buffer" : 0,
            "byteLength" : 2064,
            "byteOffset" : 8256
        },
        {
            "buffer" : 0,
            "byteLength" : 2346,
            "byteOffset" : 10320
        },
        {
            "buffer" : 0,
            "byteLength" : 2027,
            "byteOffset" : 12668
        }
    ],
    "samplers" : [
        {
            "magFilter" : 9729,
            "minFilter" : 9987
        }
    ],
    "buffers" : [
        {
            "byteLength" : 14696,
            "uri" : "data:application/octet-stream;base64,"
        }
    ]
}
