{
  "accessors": [
    {
      "bufferView": 2,
      "componentType": 5126,
      "count": 87,
      "max": [
        204.69256591796875,
        662.7369995117188,
        223.5795135498047
      ],
      "min": [
        80.04672241210938,
        341.2681884765625,
        -227.30870056152344
      ],
      "type": "VEC3"
    },
    {
      "bufferView": 2,
      "byteOffset": 1044,
      "componentType": 5126,
      "count": 87,
      "max": [
        0.683908998966217,
        0.5945430397987366,
        0.9752196669578552
      ],
      "min": [
        -0.7662084698677063,
        -0.9876052141189575,
        -0.41277414560317993
      ],
      "type": "VEC3"
    },
    {
      "bufferView": 3,
      "componentType": 5126,
      "count": 87,
      "max": [
        0.2573513090610504,
        0.992572009563446,
        0.6393150687217712,
        1.0
      ],
      "min": [
        -0.9892760515213013,
        -0.710953950881958,
        -0.8375427722930908,
        1.0
      ],
      "type": "VEC4"
    },
    {
      "bufferView": 1,
      "componentType": 5126,
      "count": 87,
      "max": [
        0.8033350110054016,
        0.9941980242729187
      ],
      "min": [
        0.26631098985671997,
        0.24365299940109253
      ],
      "type": "VEC2"
    },
    {
      "bufferView": 0,
      "componentType": 5125,
      "count": 108,
      "type": "SCALAR"
    },
    {
      "bufferView": 2,
      "byteOffset": 2088,
      "componentType": 5126,
      "count": 10201,
      "max": [
        1024.736083984375,
        1024.7357177734375,
        237.3761444091797
      ],
      "min": [
        -1024.73583984375,
        -1024.7396240234375,
        -442.7395324707031
      ],
      "type": "VEC3"
    },
    {
      "bufferView": 2,
      "byteOffset": 124500,
      "componentType": 5126,
      "count": 10201,
      "max": [
        0.9941698908805847,
        0.9625329971313477,
        0.9999916553497314
      ],
      "min": [
        -0.9963606595993042,
        -0.9653613567352295,
        0.07349499315023422
      ],
      "type": "VEC3"
    },
    {
      "bufferView": 3,
      "byteOffset": 1392,
      "componentType": 5126,
      "count": 10201,
      "max": [
        0.42896920442581177,
        -0.16662250459194183,
        0.9758636951446533,
        1.0
      ],
      "min": [
        -0.44689854979515076,
        -1.0,
        -0.9851459860801697,
        1.0
      ],
      "type": "VEC4"
    },
    {
      "bufferView": 1,
      "byteOffset": 696,
      "componentType": 5126,
      "count": 10201,
      "max": [
        0.16535800695419312,
        0.49167799949645996
      ],
      "min": [
        0.0004879999905824661,
        0.32680800557136536
      ],
      "type": "VEC2"
    },
    {
      "bufferView": 0,
      "byteOffset": 432,
      "componentType": 5125,
      "count": 60000,
      "type": "SCALAR"
    },
    {
      "bufferView": 2,
      "byteOffset": 246912,
      "componentType": 5126,
      "count": 9935,
      "max": [
        807.4234619140625,
        855.7246704101563,
        424.3701171875
      ],
      "min": [
        -748.0203247070313,
        -477.88848876953125,
        -488.331298828125
      ],
      "type": "VEC3"
    },
    {
      "bufferView": 2,
      "byteOffset": 366132,
      "componentType": 5126,
      "count": 9935,
      "max": [
        0.9999545216560364,
        0.9989396333694458,
        0.9992453455924988
      ],
      "min": [
        -0.9999549984931946,
        -0.9997934699058533,
        -0.9996199011802673
      ],
      "type": "VEC3"
    },
    {
      "bufferView": 3,
      "byteOffset": 164608,
      "componentType": 5126,
      "count": 9935,
      "max": [
        0.9999909400939941,
        0.9999980330467224,
        0.9999985098838806,
        1.0
      ],
      "min": [
        -0.9999516010284424,
        -0.9999973177909851,
        -0.9999929070472717,
        -1.0
      ],
      "type": "VEC4"
    },
    {
      "bufferView": 1,
      "byteOffset": 82304,
      "componentType": 5126,
      "count": 9935,
      "max": [
        0.9995120167732239,
        0.9985589981079102
      ],
      "min": [
        0.0004879999905824661,
        0.0004879999905824661
      ],
      "type": "VEC2"
    },
    {
      "bufferView": 0,
      "byteOffset": 240432,
      "componentType": 5125,
      "count": 36570,
      "type": "SCALAR"
    },
    {
      "bufferView": 2,
      "byteOffset": 485352,
      "componentType": 5126,
      "count": 9800,
      "max": [
        810.3782348632813,
        734.213623046875,
        559.4371337890625
      ],
      "min": [
        -766.98681640625,
        -484.27166748046875,
        -157.47540283203125
      ],
      "type": "VEC3"
    },
    {
      "bufferView": 2,
      "byteOffset": 602952,
      "componentType": 5126,
      "count": 9800,
      "max": [
        0.9997736215591431,
        0.999691903591156,
        0.9975435137748718
      ],
      "min": [
        -0.9999879002571106,
        -0.9988855123519897,
        -0.9997703433036804
      ],
      "type": "VEC3"
    },
    {
      "bufferView": 3,
      "byteOffset": 323568,
      "componentType": 5126,
      "count": 9800,
      "max": [
        0.9999801516532898,
        0.9999673366546631,
        0.9999998211860657,
        1.0
      ],
      "min": [
        -0.9999978542327881,
        -0.9999997615814209,
        -0.9999982714653015,
        1.0
      ],
      "type": "VEC4"
    },
    {
      "bufferView": 1,
      "byteOffset": 161784,
      "componentType": 5126,
      "count": 9800,
      "max": [
        0.9995110034942627,
        0.9965230226516724
      ],
      "min": [
        0.0004879999905824661,
        0.0004879999905824661
      ],
      "type": "VEC2"
    },
    {
      "bufferView": 0,
      "byteOffset": 386712,
      "componentType": 5125,
      "count": 36444,
      "type": "SCALAR"
    },
    {
      "bufferView": 2,
      "byteOffset": 720552,
      "componentType": 5126,
      "count": 5372,
      "max": [
        1024.736083984375,
        1024.7357177734375,
        399.9681091308594
      ],
      "min": [
        -1024.73583984375,
        -1024.7396240234375,
        -546.5045166015625
      ],
      "type": "VEC3"
    },
    {
      "bufferView": 2,
      "byteOffset": 785016,
      "componentType": 5126,
      "count": 5372,
      "max": [
        1.0,
        1.0,
        0.9999251365661621
      ],
      "min": [
        -1.0,
        -1.0,
        -0.9999117851257324
      ],
      "type": "VEC3"
    },
    {
      "bufferView": 3,
      "byteOffset": 480368,
      "componentType": 5126,
      "count": 5372,
      "max": [
        1.0,
        1.0,
        0.9999955296516418,
        1.0
      ],
      "min": [
        -0.9999384880065918,
        -0.9999831318855286,
        -1.0,
        -1.0
      ],
      "type": "VEC4"
    },
    {
      "bufferView": 1,
      "byteOffset": 240184,
      "componentType": 5126,
      "count": 5372,
      "max": [
        0.9989640116691589,
        0.9647330045700073
      ],
      "min": [
        0.0004879999905824661,
        0.0004879999905824661
      ],
      "type": "VEC2"
    },
    {
      "bufferView": 0,
      "byteOffset": 532488,
      "componentType": 5125,
      "count": 22248,
      "type": "SCALAR"
    }
  ],
  "asset": {
    "extras": {
      "author": "Matthew-David (https://sketchfab.com/Matthew-David)",
      "license": "CC-BY-4.0 (http://creativecommons.org/licenses/by/4.0/)",
      "source": "https://sketchfab.com/3d-models/underwater-environment-026fe35a49124ae1931c186f308dbbc1",
      "title": "Underwater Environment"
    },
    "generator": "Sketchfab-12.66.0",
    "version": "2.0"
  },
  "bufferViews": [
    {
      "buffer": 0,
      "byteLength": 621480,
      "name": "floatBufferViews",
      "target": 34963
    },
    {
      "buffer": 0,
      "byteLength": 283160,
      "byteOffset": 621480,
      "byteStride": 8,
      "name": "floatBufferViews",
      "target": 34962
    },
    {
      "buffer": 0,
      "byteLength": 849480,
      "byteOffset": 904640,
      "byteStride": 12,
      "name": "floatBufferViews",
      "target": 34962
    },
    {
      "buffer": 0,
      "byteLength": 566320,
      "byteOffset": 1754120,
      "byteStride": 16,
      "name": "floatBufferViews",
      "target": 34962
    }
  ],
  "buffers": [
    {
      "byteLength": 2320440,
      "uri": "scene.bin"
    }
  ],
  "images": [
    {
      "uri": "textures/initialShadingGroup_baseColor.png"
    },
    {
      "uri": "textures/initialShadingGroup_metallicRoughness.png"
    },
    {
      "uri": "textures/initialShadingGroup_emissive.png"
    },
    {
      "uri": "textures/initialShadingGroup_normal.png"
    }
  ],
  "materials": [
    {
      "doubleSided": true,
      "emissiveFactor": [
        1.0,
        1.0,
        1.0
      ],
      "emissiveTexture": {
        "index": 2
      },
      "name": "initialShadingGroup",
      "normalTexture": {
        "index": 3
      },
      "occlusionTexture": {
        "index": 1
      },
      "pbrMetallicRoughness": {
        "baseColorTexture": {
          "index": 0
        },
        "metallicRoughnessTexture": {
          "index": 1
        }
      }
    }
  ],
  "meshes": [
    {
      "name": "Object_0",
      "primitives": [
        {
          "attributes": {
            "NORMAL": 1,
            "POSITION": 0,
            "TANGENT": 2,
            "TEXCOORD_0": 3
          },
          "indices": 4,
          "material": 0,
          "mode": 4
        }
      ]
    },
    {
      "name": "Object_1",
      "primitives": [
        {
          "attributes": {
            "NORMAL": 6,
            "POSITION": 5,
            "TANGENT": 7,
            "TEXCOORD_0": 8
          },
          "indices": 9,
          "material": 0,
          "mode": 4
        }
      ]
    },
    {
      "name": "Object_2",
      "primitives": [
        {
          "attributes": {
            "NORMAL": 11,
            "POSITION": 10,
            "TANGENT": 12,
            "TEXCOORD_0": 13
          },
          "indices": 14,
          "material": 0,
          "mode": 4
        }
      ]
    },
    {
      "name": "Object_3",
      "primitives": [
        {
          "attributes": {
            "NORMAL": 16,
            "POSITION": 15,
            "TANGENT": 17,
            "TEXCOORD_0": 18
          },
          "indices": 19,
          "material": 0,
          "mode": 4
        }
      ]
    },
    {
      "name": "Object_4",
      "primitives": [
        {
          "attributes": {
            "NORMAL": 21,
            "POSITION": 20,
            "TANGENT": 22,
            "TEXCOORD_0": 23
          },
          "indices": 24,
          "material": 0,
          "mode": 4
        }
      ]
    }
  ],
  "nodes": [
    {
      "children": [
        1
      ],
      "matrix": [
        1.0,
        0.0,
        0.0,
        0.0,
        0.0,
        2.220446049250313e-16,
        -1.0,
        0.0,
        0.0,
        1.0,
        2.220446049250313e-16,
        0.0,
        0.0,
        0.0,
        0.0,
        1.0
      ],
      "name": "Sketchfab_model"
    },
    {
      "children": [
        2,
        3,
        4,
        5,
        6
      ],
      "name": "SE_COMPLETE.obj.cleaner.materialmerger.gles"
    },
    {
      "mesh": 0,
      "name": "Object_2"
    },
    {
      "mesh": 1,
      "name": "Object_3"
    },
    {
      "mesh": 2,
      "name": "Object_4"
    },
    {
      "mesh": 3,
      "name": "Object_5"
    },
    {
      "mesh": 4,
      "name": "Object_6"
    }
  ],
  "samplers": [
    {
      "magFilter": 9729,
      "minFilter": 9987,
      "wrapS": 10497,
      "wrapT": 10497
    }
  ],
  "scene": 0,
  "scenes": [
    {
      "name": "Sketchfab_Scene",
      "nodes": [
        0
      ]
    }
  ],
  "textures": [
    {
      "sampler": 0,
      "source": 0
    },
    {
      "sampler": 0,
      "source": 1
    },
    {
      "sampler": 0,
      "source": 2
    },
    {
      "sampler": 0,
      "source": 3
    }
  ]
}
