{
  "accessors": [
    {
      "bufferView": 2,
      "componentType": 5126,
      "count": 1994,
      "max": [
        19.75639533996582,
        21.04637908935547,
        118.3836441040039
      ],
      "min": [
        -15.110820770263672,
        -16.180320739746094,
        -22.109163284301758
      ],
      "type": "VEC3"
    },
    {
      "bufferView": 2,
      "byteOffset": 23928,
      "componentType": 5126,
      "count": 1994,
      "max": [
        0.9983536601066589,
        0.9996873736381531,
        0.9966431260108948
      ],
      "min": [
        -0.9999457001686096,
        -0.9972285628318787,
        -0.9997076392173767
      ],
      "type": "VEC3"
    },
    {
      "bufferView": 3,
      "componentType": 5126,
      "count": 1994,
      "max": [
        0.9983910322189331,
        0.9938366413116455,
        0.9873546957969666,
        1.0
      ],
      "min": [
        -0.9998040795326233,
        -0.999026894569397,
        -0.9999972581863403,
        -1.0
      ],
      "type": "VEC4"
    },
    {
      "bufferView": 1,
      "componentType": 5126,
      "count": 1994,
      "max": [
        0.9760602712631226,
        0.990913987159729
      ],
      "min": [
        0.009081492200493813,
        0.0090867280960083
      ],
      "type": "VEC2"
    },
    {
      "bufferView": 1,
      "byteOffset": 15952,
      "componentType": 5126,
      "count": 1994,
      "max": [
        0.9760602712631226,
        0.990913987159729
      ],
      "min": [
        0.009081492200493813,
        0.0090867280960083
      ],
      "type": "VEC2"
    },
    {
      "bufferView": 1,
      "byteOffset": 31904,
      "componentType": 5126,
      "count": 1994,
      "max": [
        0.9760602712631226,
        0.990913987159729
      ],
      "min": [
        0.009081492200493813,
        0.0090867280960083
      ],
      "type": "VEC2"
    },
    {
      "bufferView": 0,
      "componentType": 5125,
      "count": 10599,
      "type": "SCALAR"
    }
  ],
  "asset": {
    "extras": {
      "author": "DJMaesen (https://sketchfab.com/bumstrum)",
      "license": "CC-BY-4.0 (http://creativecommons.org/licenses/by/4.0/)",
      "source": "https://sketchfab.com/3d-models/arm-696f4493d39a44d7b5cf4c85b4239ae8",
      "title": "arm"
    },
    "generator": "Sketchfab-12.66.0",
    "version": "2.0"
  },
  "bufferViews": [
    {
      "buffer": 0,
      "byteLength": 42396,
      "name": "floatBufferViews",
      "target": 34963
    },
    {
      "buffer": 0,
      "byteLength": 47856,
      "byteOffset": 42396,
      "byteStride": 8,
      "name": "floatBufferViews",
      "target": 34962
    },
    {
      "buffer": 0,
      "byteLength": 47856,
      "byteOffset": 90252,
      "byteStride": 12,
      "name": "floatBufferViews",
      "target": 34962
    },
    {
      "buffer": 0,
      "byteLength": 31904,
      "byteOffset": 138108,
      "byteStride": 16,
      "name": "floatBufferViews",
      "target": 34962
    }
  ],
  "buffers": [
    {
      "byteLength": 170012,
      "uri": "scene.bin"
    }
  ],
  "extensionsRequired": [
    "KHR_materials_pbrSpecularGlossiness"
  ],
  "extensionsUsed": [
    "KHR_materials_pbrSpecularGlossiness"
  ],
  "images": [
    {
      "uri": "textures/arms1_diffuse.png"
    },
    {
      "uri": "textures/arms1_specularGlossiness.png"
    },
    {
      "uri": "textures/arms1_normal.png"
    },
    {
      "uri": "textures/arms1_occlusion.png"
    }
  ],
  "materials": [
    {
      "extensions": {
        "KHR_materials_pbrSpecularGlossiness": {
          "diffuseFactor": [
            1.0,
            1.0,
            1.0,
            1.0
          ],
          "diffuseTexture": {
            "index": 0
          },
          "glossinessFactor": 1.0,
          "specularFactor": [
            1.0,
            1.0,
            1.0
          ],
          "specularGlossinessTexture": {
            "index": 1
          }
        }
      },
      "name": "arms1",
      "normalTexture": {
        "index": 2
      },
      "occlusionTexture": {
        "index": 3,
        "strength": 0.9041539634146343
      }
    }
  ],
  "meshes": [
    {
      "name": "arms_arms1_0",
      "primitives": [
        {
          "attributes": {
            "NORMAL": 1,
            "POSITION": 0,
            "TANGENT": 2,
            "TEXCOORD_0": 3,
            "TEXCOORD_1": 4,
            "TEXCOORD_2": 5
          },
          "indices": 6,
          "material": 0,
          "mode": 4
        }
      ]
    }
  ],
  "nodes": [
    {
      "children": [
        1
      ],
      "matrix": [
        1.0,
        0.0,
        0.0,
        0.0,
        0.0,
        2.220446049250313e-16,
        -1.0,
        0.0,
        0.0,
        1.0,
        2.220446049250313e-16,
        0.0,
        0.0,
        0.0,
        0.0,
        1.0
      ],
      "name": "Sketchfab_model"
    },
    {
      "children": [
        2
      ],
      "matrix": [
        1.0,
        0.0,
        0.0,
        0.0,
        0.0,
        0.0,
        1.0,
        0.0,
        0.0,
        -1.0,
        0.0,
        0.0,
        0.0,
        0.0,
        0.0,
        1.0
      ],
      "name": "b104c81fdf1c4456b6a8104d6d4af77d.fbx"
    },
    {
      "children": [
        3
      ],
      "name": "RootNode"
    },
    {
      "children": [
        4
      ],
      "matrix": [
        0.9239958308761561,
        0.3194973831626584,
        -0.21012645401209096,
        0.0,
        -0.38150131053871994,
        0.8078823220733329,
        -0.44920251973763314,
        0.0,
        0.02623841803007726,
        0.495224773041104,
        0.8683685678245534,
        0.0,
        -5.792520523071289,
        0.8514086604118347,
        -2.833836555480957,
        1.0
      ],
      "name": "arms"
    },
    {
      "mesh": 0,
      "name": "arms_arms1_0"
    }
  ],
  "samplers": [
    {
      "magFilter": 9729,
      "minFilter": 9987,
      "wrapS": 10497,
      "wrapT": 10497
    }
  ],
  "scene": 0,
  "scenes": [
    {
      "name": "Sketchfab_Scene",
      "nodes": [
        0
      ]
    }
  ],
  "textures": [
    {
      "sampler": 0,
      "source": 0
    },
    {
      "sampler": 0,
      "source": 1
    },
    {
      "sampler": 0,
      "source": 2
    },
    {
      "sampler": 0,
      "source": 3
    }
  ]
}
