{
    "asset" : {
        "generator" : "Khronos glTF Blender I/O v3.2.43",
        "version" : "2.0"
    },
    "scene" : 0,
    "scenes" : [
        {
            "name" : "Scene",
            "nodes" : [
                2
            ]
        }
    ],
    "nodes" : [
        {
            "mesh" : 0,
            "name" : "Object_2.001",
            "rotation" : [
                0,
                -0.70710688829422,
                0.7071066498756409,
                3.0908619663705394e-08
            ],
            "scale" : [
                0.013371000997722149,
                0.013371000066399574,
                0.013371000066399574
            ],
            "translation" : [
                0,
                -0.2005230039358139,
                -1.2463078498840332
            ]
        },
        {
            "mesh" : 1,
            "name" : "Object_3.001",
            "rotation" : [
                -0.7071068286895752,
                0,
                0,
                0.7071067094802856
            ],
            "scale" : [
                0.013371000066399574,
                0.013371000066399574,
                0.013371000066399574
            ]
        },
        {
            "children" : [
                0,
                1
            ],
            "name" : "printer.obj.cleaner.materialmerger.gles",
            "rotation" : [
                0,
                0.7071068286895752,
                0,
                0.7071067094802856
            ],
            "translation" : [
                0.3986052870750427,
                0.4378058910369873,
                -0.005010843276977539
            ]
        }
    ],
    "animations" : [
        {
            "channels" : [
                {
                    "sampler" : 0,
                    "target" : {
                        "node" : 2,
                        "path" : "translation"
                    }
                },
                {
                    "sampler" : 1,
                    "target" : {
                        "node" : 2,
                        "path" : "rotation"
                    }
                },
                {
                    "sampler" : 2,
                    "target" : {
                        "node" : 2,
                        "path" : "scale"
                    }
                }
            ],
            "name" : "printer.obj.cleaner.materialmerger.glesAction",
            "samplers" : [
                {
                    "input" : 8,
                    "interpolation" : "STEP",
                    "output" : 9
                },
                {
                    "input" : 8,
                    "interpolation" : "STEP",
                    "output" : 10
                },
                {
                    "input" : 8,
                    "interpolation" : "STEP",
                    "output" : 11
                }
            ]
        },
        {
            "channels" : [
                {
                    "sampler" : 0,
                    "target" : {
                        "node" : 0,
                        "path" : "translation"
                    }
                },
                {
                    "sampler" : 1,
                    "target" : {
                        "node" : 0,
                        "path" : "rotation"
                    }
                },
                {
                    "sampler" : 2,
                    "target" : {
                        "node" : 0,
                        "path" : "scale"
                    }
                }
            ],
            "name" : "Print_Floor",
            "samplers" : [
                {
                    "input" : 12,
                    "interpolation" : "LINEAR",
                    "output" : 13
                },
                {
                    "input" : 12,
                    "interpolation" : "LINEAR",
                    "output" : 14
                },
                {
                    "input" : 12,
                    "interpolation" : "LINEAR",
                    "output" : 15
                }
            ]
        },
        {
            "channels" : [
                {
                    "sampler" : 0,
                    "target" : {
                        "node" : 0,
                        "path" : "translation"
                    }
                },
                {
                    "sampler" : 1,
                    "target" : {
                        "node" : 0,
                        "path" : "rotation"
                    }
                },
                {
                    "sampler" : 2,
                    "target" : {
                        "node" : 0,
                        "path" : "scale"
                    }
                }
            ],
            "name" : "print",
            "samplers" : [
                {
                    "input" : 16,
                    "interpolation" : "LINEAR",
                    "output" : 17
                },
                {
                    "input" : 16,
                    "interpolation" : "LINEAR",
                    "output" : 18
                },
                {
                    "input" : 16,
                    "interpolation" : "LINEAR",
                    "output" : 19
                }
            ]
        }
    ],
    "materials" : [
        {
            "doubleSided" : true,
            "emissiveTexture" : {
                "index" : 0
            },
            "name" : "Material__1",
            "pbrMetallicRoughness" : {
                "baseColorTexture" : {
                    "index" : 1
                },
                "metallicFactor" : 0
            }
        },
        {
            "doubleSided" : true,
            "emissiveTexture" : {
                "index" : 2
            },
            "name" : "Material__0",
            "pbrMetallicRoughness" : {
                "baseColorTexture" : {
                    "index" : 3
                },
                "metallicFactor" : 0
            }
        }
    ],
    "meshes" : [
        {
            "name" : "Object_0.001",
            "primitives" : [
                {
                    "attributes" : {
                        "POSITION" : 0,
                        "NORMAL" : 1,
                        "TEXCOORD_0" : 2
                    },
                    "indices" : 3,
                    "material" : 0
                }
            ]
        },
        {
            "name" : "Object_1.001",
            "primitives" : [
                {
                    "attributes" : {
                        "POSITION" : 4,
                        "NORMAL" : 5,
                        "TEXCOORD_0" : 6
                    },
                    "indices" : 7,
                    "material" : 1
                }
            ]
        }
    ],
    "textures" : [
        {
            "sampler" : 0,
            "source" : 0
        },
        {
            "sampler" : 0,
            "source" : 1
        },
        {
            "sampler" : 0,
            "source" : 2
        },
        {
            "sampler" : 0,
            "source" : 2
        }
    ],
    "images" : [
        {
            "bufferView" : 4,
            "mimeType" : "image/jpeg",
            "name" : "Image_0"
        },
        {
            "bufferView" : 5,
            "mimeType" : "image/png",
            "name" : "Image_1"
        },
        {
            "bufferView" : 10,
            "mimeType" : "image/jpeg",
            "name" : "Image_2"
        }
    ],
    "accessors" : [
        {
            "bufferView" : 0,
            "componentType" : 5126,
            "count" : 10,
            "max" : [
                57.222900390625,
                85.80987548828125,
                8.777714729309082
            ],
            "min" : [
                -57.222900390625,
                -58.86235046386719,
                1.9520647525787354
            ],
            "type" : "VEC3"
        },
        {
            "bufferView" : 1,
            "componentType" : 5126,
            "count" : 10,
            "type" : "VEC3"
        },
        {
            "bufferView" : 2,
            "componentType" : 5126,
            "count" : 10,
            "type" : "VEC2"
        },
        {
            "bufferView" : 3,
            "componentType" : 5123,
            "count" : 24,
            "type" : "SCALAR"
        },
        {
            "bufferView" : 6,
            "componentType" : 5126,
            "count" : 440,
            "max" : [
                110.0008544921875,
                66.81210327148438,
                40.051025390625
            ],
            "min" : [
                -109.880859375,
                -80.77688598632812,
                -32.3809814453125
            ],
            "type" : "VEC3"
        },
        {
            "bufferView" : 7,
            "componentType" : 5126,
            "count" : 440,
            "type" : "VEC3"
        },
        {
            "bufferView" : 8,
            "componentType" : 5126,
            "count" : 440,
            "type" : "VEC2"
        },
        {
            "bufferView" : 9,
            "componentType" : 5123,
            "count" : 1362,
            "type" : "SCALAR"
        },
        {
            "bufferView" : 11,
            "componentType" : 5126,
            "count" : 1,
            "max" : [
                2
            ],
            "min" : [
                2
            ],
            "type" : "SCALAR"
        },
        {
            "bufferView" : 12,
            "componentType" : 5126,
            "count" : 1,
            "type" : "VEC3"
        },
        {
            "bufferView" : 13,
            "componentType" : 5126,
            "count" : 1,
            "type" : "VEC4"
        },
        {
            "bufferView" : 14,
            "componentType" : 5126,
            "count" : 1,
            "type" : "VEC3"
        },
        {
            "bufferView" : 15,
            "componentType" : 5126,
            "count" : 360,
            "max" : [
                15
            ],
            "min" : [
                0.041666666666666664
            ],
            "type" : "SCALAR"
        },
        {
            "bufferView" : 16,
            "componentType" : 5126,
            "count" : 360,
            "type" : "VEC3"
        },
        {
            "bufferView" : 17,
            "componentType" : 5126,
            "count" : 360,
            "type" : "VEC4"
        },
        {
            "bufferView" : 18,
            "componentType" : 5126,
            "count" : 360,
            "type" : "VEC3"
        },
        {
            "bufferView" : 19,
            "componentType" : 5126,
            "count" : 240,
            "max" : [
                10
            ],
            "min" : [
                0.041666666666666664
            ],
            "type" : "SCALAR"
        },
        {
            "bufferView" : 20,
            "componentType" : 5126,
            "count" : 240,
            "type" : "VEC3"
        },
        {
            "bufferView" : 21,
            "componentType" : 5126,
            "count" : 240,
            "type" : "VEC4"
        },
        {
            "bufferView" : 22,
            "componentType" : 5126,
            "count" : 240,
            "type" : "VEC3"
        }
    ],
    "bufferViews" : [
        {
            "buffer" : 0,
            "byteLength" : 120,
            "byteOffset" : 0
        },
        {
            "buffer" : 0,
            "byteLength" : 120,
            "byteOffset" : 120
        },
        {
            "buffer" : 0,
            "byteLength" : 80,
            "byteOffset" : 240
        },
        {
            "buffer" : 0,
            "byteLength" : 48,
            "byteOffset" : 320
        },
        {
            "buffer" : 0,
            "byteLength" : 43969,
            "byteOffset" : 368
        },
        {
            "buffer" : 0,
            "byteLength" : 313902,
            "byteOffset" : 44340
        },
        {
            "buffer" : 0,
            "byteLength" : 5280,
            "byteOffset" : 358244
        },
        {
            "buffer" : 0,
            "byteLength" : 5280,
            "byteOffset" : 363524
        },
        {
            "buffer" : 0,
            "byteLength" : 3520,
            "byteOffset" : 368804
        },
        {
            "buffer" : 0,
            "byteLength" : 2724,
            "byteOffset" : 372324
        },
        {
            "buffer" : 0,
            "byteLength" : 221108,
            "byteOffset" : 375048
        },
        {
            "buffer" : 0,
            "byteLength" : 4,
            "byteOffset" : 596156
        },
        {
            "buffer" : 0,
            "byteLength" : 12,
            "byteOffset" : 596160
        },
        {
            "buffer" : 0,
            "byteLength" : 16,
            "byteOffset" : 596172
        },
        {
            "buffer" : 0,
            "byteLength" : 12,
            "byteOffset" : 596188
        },
        {
            "buffer" : 0,
            "byteLength" : 1440,
            "byteOffset" : 596200
        },
        {
            "buffer" : 0,
            "byteLength" : 4320,
            "byteOffset" : 597640
        },
        {
            "buffer" : 0,
            "byteLength" : 5760,
            "byteOffset" : 601960
        },
        {
            "buffer" : 0,
            "byteLength" : 4320,
            "byteOffset" : 607720
        },
        {
            "buffer" : 0,
            "byteLength" : 960,
            "byteOffset" : 612040
        },
        {
            "buffer" : 0,
            "byteLength" : 2880,
            "byteOffset" : 613000
        },
        {
            "buffer" : 0,
            "byteLength" : 3840,
            "byteOffset" : 615880
        },
        {
            "buffer" : 0,
            "byteLength" : 2880,
            "byteOffset" : 619720
        }
    ],
    "samplers" : [
        {
            "magFilter" : 9729,
            "minFilter" : 9987
        }
    ],
    "buffers" : [
        {
            "byteLength" : 622600,
            "uri" : "data:application/octet-stream;base64,"
        }
    ]
}
