{
    "asset" : {
        "generator" : "Khronos glTF Blender I/O v3.2.43",
        "version" : "2.0"
    },
    "scene" : 0,
    "scenes" : [
        {
            "name" : "Scene",
            "nodes" : [
                3,
                13,
                15,
                17
            ]
        }
    ],
    "nodes" : [
        {
            "name" : "pig_head1.m",
            "rotation" : [
                -0.7071068286895752,
                0,
                0,
                0.7071067094802856
            ],
            "scale" : [
                100,
                99.99999237060547,
                99.99999237060547
            ]
        },
        {
            "children" : [
                0
            ],
            "name" : "RootNode"
        },
        {
            "children" : [
                1
            ],
            "name" : "fpig.fbx",
            "rotation" : [
                0.7071068286895752,
                0,
                0,
                0.7071067094802856
            ],
            "scale" : [
                0.009999999776482582,
                0.010000000707805157,
                0.010000000707805157
            ]
        },
        {
            "children" : [
                2
            ],
            "name" : "Sketchfab_model",
            "rotation" : [
                -0.5,
                -0.5,
                -0.5,
                0.5
            ],
            "translation" : [
                0.3511618375778198,
                0,
                0.35193756222724915
            ]
        },
        {
            "mesh" : 0,
            "name" : "copo_low_01_vidro_0"
        },
        {
            "children" : [
                4
            ],
            "name" : "copo_low_01"
        },
        {
            "mesh" : 1,
            "name" : "copo_low_02_agua_0"
        },
        {
            "children" : [
                6
            ],
            "name" : "copo_low_02"
        },
        {
            "mesh" : 2,
            "name" : "copo_low_03_lambert1_0"
        },
        {
            "children" : [
                8
            ],
            "name" : "copo_low_03"
        },
        {
            "mesh" : 3,
            "name" : "copo_low_04_vidro_0"
        },
        {
            "children" : [
                10
            ],
            "name" : "copo_low_04"
        },
        {
            "children" : [
                5,
                7,
                9,
                11
            ],
            "name" : "RootNode.001"
        },
        {
            "children" : [
                12
            ],
            "name" : "9f63f7c041a34b8fac37817e3c2f69fa.fbx",
            "scale" : [
                0.009999999776482582,
                0.009999999776482582,
                0.009999999776482582
            ],
            "translation" : [
                0,
                -0.36707237362861633,
                0
            ]
        },
        {
            "name" : "SceneFinal.obj.cleaner.materialmerger.gles"
        },
        {
            "children" : [
                14
            ],
            "name" : "Sketchfab_model.001",
            "rotation" : [
                -0.70710688829422,
                0,
                0,
                0.7071066498756409
            ],
            "translation" : [
                0,
                -0.36707237362861633,
                0
            ]
        },
        {
            "name" : "SceneFinal.obj.cleaner.materialmerger.gles.001"
        },
        {
            "children" : [
                16
            ],
            "name" : "Sketchfab_model.002",
            "rotation" : [
                -0.70710688829422,
                0,
                0,
                0.7071066498756409
            ],
            "translation" : [
                0,
                -0.36707237362861633,
                0
            ]
        }
    ],
    "materials" : [
        {
            "alphaMode" : "BLEND",
            "doubleSided" : true,
            "name" : "vidro",
            "normalTexture" : {
                "index" : 0
            },
            "pbrMetallicRoughness" : {
                "baseColorFactor" : [
                    0.30000001192092896,
                    0.30000001192092896,
                    0.30000001192092896,
                    1
                ],
                "baseColorTexture" : {
                    "index" : 1
                },
                "metallicFactor" : 0,
                "metallicRoughnessTexture" : {
                    "index" : 2
                },
                "roughnessFactor" : 0.5
            }
        },
        {
            "alphaMode" : "BLEND",
            "doubleSided" : true,
            "name" : "agua",
            "normalTexture" : {
                "index" : 3
            },
            "pbrMetallicRoughness" : {
                "baseColorFactor" : [
                    1,
                    0.47230732440948486,
                    0,
                    0.25
                ],
                "baseColorTexture" : {
                    "index" : 4
                },
                "metallicFactor" : 0,
                "metallicRoughnessTexture" : {
                    "index" : 5
                },
                "roughnessFactor" : 0
            }
        },
        {
            "doubleSided" : true,
            "name" : "lambert1",
            "normalTexture" : {
                "index" : 6
            },
            "pbrMetallicRoughness" : {
                "baseColorTexture" : {
                    "index" : 7
                },
                "metallicRoughnessTexture" : {
                    "index" : 8
                }
            }
        }
    ],
    "meshes" : [
        {
            "name" : "copo_low_01_vidro_0",
            "primitives" : [
                {
                    "attributes" : {
                        "POSITION" : 0,
                        "NORMAL" : 1,
                        "TEXCOORD_0" : 2
                    },
                    "indices" : 3,
                    "material" : 0
                }
            ]
        },
        {
            "name" : "copo_low_02_agua_0",
            "primitives" : [
                {
                    "attributes" : {
                        "POSITION" : 4,
                        "NORMAL" : 5,
                        "TEXCOORD_0" : 6
                    },
                    "indices" : 7,
                    "material" : 1
                }
            ]
        },
        {
            "name" : "copo_low_03_lambert1_0",
            "primitives" : [
                {
                    "attributes" : {
                        "POSITION" : 8,
                        "NORMAL" : 9,
                        "TEXCOORD_0" : 10
                    },
                    "indices" : 11,
                    "material" : 2
                }
            ]
        },
        {
            "name" : "copo_low_04_vidro_0",
            "primitives" : [
                {
                    "attributes" : {
                        "POSITION" : 12,
                        "NORMAL" : 13,
                        "TEXCOORD_0" : 14
                    },
                    "indices" : 15,
                    "material" : 0
                }
            ]
        }
    ],
    "textures" : [
        {
            "sampler" : 0,
            "source" : 0
        },
        {
            "sampler" : 0,
            "source" : 1
        },
        {
            "sampler" : 0,
            "source" : 2
        },
        {
            "sampler" : 0,
            "source" : 0
        },
        {
            "sampler" : 0,
            "source" : 3
        },
        {
            "sampler" : 0,
            "source" : 2
        },
        {
            "sampler" : 0,
            "source" : 0
        },
        {
            "sampler" : 0,
            "source" : 3
        },
        {
            "sampler" : 0,
            "source" : 4
        }
    ],
    "images" : [
        {
            "bufferView" : 4,
            "mimeType" : "image/png",
            "name" : "Image_0"
        },
        {
            "bufferView" : 5,
            "mimeType" : "image/png",
            "name" : "Image_1"
        },
        {
            "bufferView" : 6,
            "mimeType" : "image/png",
            "name" : "Image_2"
        },
        {
            "bufferView" : 11,
            "mimeType" : "image/png",
            "name" : "Image_3"
        },
        {
            "bufferView" : 16,
            "mimeType" : "image/png",
            "name" : "Image_4"
        }
    ],
    "accessors" : [
        {
            "bufferView" : 0,
            "componentType" : 5126,
            "count" : 548,
            "max" : [
                18.150339126586914,
                114.16943359375,
                23.981237411499023
            ],
            "min" : [
                -29.39989471435547,
                36.00413513183594,
                -23.73617172241211
            ],
            "type" : "VEC3"
        },
        {
            "bufferView" : 1,
            "componentType" : 5126,
            "count" : 548,
            "type" : "VEC3"
        },
        {
            "bufferView" : 2,
            "componentType" : 5126,
            "count" : 548,
            "type" : "VEC2"
        },
        {
            "bufferView" : 3,
            "componentType" : 5123,
            "count" : 2793,
            "type" : "SCALAR"
        },
        {
            "bufferView" : 7,
            "componentType" : 5126,
            "count" : 187,
            "max" : [
                14.534677505493164,
                100.29573059082031,
                20.382369995117188
            ],
            "min" : [
                -25.843032836914062,
                44.26826477050781,
                -20.13729476928711
            ],
            "type" : "VEC3"
        },
        {
            "bufferView" : 8,
            "componentType" : 5126,
            "count" : 187,
            "type" : "VEC3"
        },
        {
            "bufferView" : 9,
            "componentType" : 5126,
            "count" : 187,
            "type" : "VEC2"
        },
        {
            "bufferView" : 10,
            "componentType" : 5123,
            "count" : 678,
            "type" : "SCALAR"
        },
        {
            "bufferView" : 12,
            "componentType" : 5126,
            "count" : 726,
            "max" : [
                8.595239639282227,
                134.35794067382812,
                2.3332834243774414
            ],
            "min" : [
                -58.508628845214844,
                45.97670364379883,
                -0.7720873951911926
            ],
            "type" : "VEC3"
        },
        {
            "bufferView" : 13,
            "componentType" : 5126,
            "count" : 726,
            "type" : "VEC3"
        },
        {
            "bufferView" : 14,
            "componentType" : 5126,
            "count" : 726,
            "type" : "VEC2"
        },
        {
            "bufferView" : 15,
            "componentType" : 5123,
            "count" : 3600,
            "type" : "SCALAR"
        },
        {
            "bufferView" : 17,
            "componentType" : 5126,
            "count" : 910,
            "max" : [
                10.51971435546875,
                95.87659454345703,
                15.66495132446289
            ],
            "min" : [
                -21.862430572509766,
                46.04839324951172,
                -15.74807071685791
            ],
            "type" : "VEC3"
        },
        {
            "bufferView" : 18,
            "componentType" : 5126,
            "count" : 910,
            "type" : "VEC3"
        },
        {
            "bufferView" : 19,
            "componentType" : 5126,
            "count" : 910,
            "type" : "VEC2"
        },
        {
            "bufferView" : 20,
            "componentType" : 5123,
            "count" : 3948,
            "type" : "SCALAR"
        }
    ],
    "bufferViews" : [
        {
            "buffer" : 0,
            "byteLength" : 6576,
            "byteOffset" : 0
        },
        {
            "buffer" : 0,
            "byteLength" : 6576,
            "byteOffset" : 6576
        },
        {
            "buffer" : 0,
            "byteLength" : 4384,
            "byteOffset" : 13152
        },
        {
            "buffer" : 0,
            "byteLength" : 5586,
            "byteOffset" : 17536
        },
        {
            "buffer" : 0,
            "byteLength" : 592941,
            "byteOffset" : 23124
        },
        {
            "buffer" : 0,
            "byteLength" : 2379,
            "byteOffset" : 616068
        },
        {
            "buffer" : 0,
            "byteLength" : 953541,
            "byteOffset" : 618448
        },
        {
            "buffer" : 0,
            "byteLength" : 2244,
            "byteOffset" : 1571992
        },
        {
            "buffer" : 0,
            "byteLength" : 2244,
            "byteOffset" : 1574236
        },
        {
            "buffer" : 0,
            "byteLength" : 1496,
            "byteOffset" : 1576480
        },
        {
            "buffer" : 0,
            "byteLength" : 1356,
            "byteOffset" : 1577976
        },
        {
            "buffer" : 0,
            "byteLength" : 5007,
            "byteOffset" : 1579332
        },
        {
            "buffer" : 0,
            "byteLength" : 8712,
            "byteOffset" : 1584340
        },
        {
            "buffer" : 0,
            "byteLength" : 8712,
            "byteOffset" : 1593052
        },
        {
            "buffer" : 0,
            "byteLength" : 5808,
            "byteOffset" : 1601764
        },
        {
            "buffer" : 0,
            "byteLength" : 7200,
            "byteOffset" : 1607572
        },
        {
            "buffer" : 0,
            "byteLength" : 953750,
            "byteOffset" : 1614772
        },
        {
            "buffer" : 0,
            "byteLength" : 10920,
            "byteOffset" : 2568524
        },
        {
            "buffer" : 0,
            "byteLength" : 10920,
            "byteOffset" : 2579444
        },
        {
            "buffer" : 0,
            "byteLength" : 7280,
            "byteOffset" : 2590364
        },
        {
            "buffer" : 0,
            "byteLength" : 7896,
            "byteOffset" : 2597644
        }
    ],
    "samplers" : [
        {
            "magFilter" : 9729,
            "minFilter" : 9987
        }
    ],
    "buffers" : [
        {
            "byteLength" : 2605540,
            "uri" : "data:application/octet-stream;base64,"
        }
    ]
}
