{
  "accessors": [
    {
      "bufferView": 2,
      "componentType": 5126,
      "count": 1230,
      "max": [
        1.6163610219955444,
        3.8616909980773926,
        3.316128969192505
      ],
      "min": [
        -1.6385509967803955,
        -2.6161539554595947,
        -0.004521999973803759
      ],
      "type": "VEC3"
    },
    {
      "bufferView": 2,
      "byteOffset": 14760,
      "componentType": 5126,
      "count": 1230,
      "max": [
        0.9885332584381104,
        0.983660876750946,
        0.9960556626319885
      ],
      "min": [
        -0.9900575280189514,
        -0.9836902618408203,
        -0.9454676508903503
      ],
      "type": "VEC3"
    },
    {
      "bufferView": 3,
      "componentType": 5126,
      "count": 1230,
      "max": [
        0.9999995231628418,
        0.9999671578407288,
        0.9904274344444275,
        1.0
      ],
      "min": [
        -0.9993128776550293,
        -0.9523577094078064,
        -0.9910587668418884,
        1.0
      ],
      "type": "VEC4"
    },
    {
      "bufferView": 1,
      "componentType": 5126,
      "count": 1230,
      "max": [
        0.9947199821472168,
        0.9896910190582275
      ],
      "min": [
        0.003154000034555793,
        0.006283999886363745
      ],
      "type": "VEC2"
    },
    {
      "bufferView": 0,
      "componentType": 5125,
      "count": 5340,
      "type": "SCALAR"
    }
  ],
  "asset": {
    "extras": {
      "author": "Isengrim (https://sketchfab.com/Isengrim)",
      "license": "CC-BY-4.0 (http://creativecommons.org/licenses/by/4.0/)",
      "source": "https://sketchfab.com/3d-models/pier-v-1-f32ddc2c6dcf4c99b33abf3eaad71766",
      "title": "pier_V_1"
    },
    "generator": "Sketchfab-12.68.0",
    "version": "2.0"
  },
  "bufferViews": [
    {
      "buffer": 0,
      "byteLength": 21360,
      "name": "floatBufferViews",
      "target": 34963
    },
    {
      "buffer": 0,
      "byteLength": 9840,
      "byteOffset": 21360,
      "byteStride": 8,
      "name": "floatBufferViews",
      "target": 34962
    },
    {
      "buffer": 0,
      "byteLength": 29520,
      "byteOffset": 31200,
      "byteStride": 12,
      "name": "floatBufferViews",
      "target": 34962
    },
    {
      "buffer": 0,
      "byteLength": 19680,
      "byteOffset": 60720,
      "byteStride": 16,
      "name": "floatBufferViews",
      "target": 34962
    }
  ],
  "buffers": [
    {
      "byteLength": 80400,
      "uri": "scene.bin"
    }
  ],
  "images": [
    {
      "uri": "textures/pirs_1_low_baseColor.png"
    },
    {
      "uri": "textures/pirs_1_low_metallicRoughness.png"
    },
    {
      "uri": "textures/pirs_1_low_normal.png"
    }
  ],
  "materials": [
    {
      "name": "pirs_1_low",
      "normalTexture": {
        "index": 2
      },
      "occlusionTexture": {
        "index": 1
      },
      "pbrMetallicRoughness": {
        "baseColorTexture": {
          "index": 0
        },
        "metallicRoughnessTexture": {
          "index": 1
        }
      }
    }
  ],
  "meshes": [
    {
      "name": "Object_0",
      "primitives": [
        {
          "attributes": {
            "NORMAL": 1,
            "POSITION": 0,
            "TANGENT": 2,
            "TEXCOORD_0": 3
          },
          "indices": 4,
          "material": 0,
          "mode": 4
        }
      ]
    }
  ],
  "nodes": [
    {
      "children": [
        1
      ],
      "matrix": [
        1.0,
        0.0,
        0.0,
        0.0,
        0.0,
        2.220446049250313e-16,
        -1.0,
        0.0,
        0.0,
        1.0,
        2.220446049250313e-16,
        0.0,
        0.0,
        0.0,
        0.0,
        1.0
      ],
      "name": "Sketchfab_model"
    },
    {
      "children": [
        2
      ],
      "name": "ou_pirs_v1_low.obj.cleaner.gles"
    },
    {
      "mesh": 0,
      "name": "Object_2"
    }
  ],
  "samplers": [
    {
      "magFilter": 9729,
      "minFilter": 9987,
      "wrapS": 10497,
      "wrapT": 10497
    }
  ],
  "scene": 0,
  "scenes": [
    {
      "name": "Sketchfab_Scene",
      "nodes": [
        0
      ]
    }
  ],
  "textures": [
    {
      "sampler": 0,
      "source": 0
    },
    {
      "sampler": 0,
      "source": 1
    },
    {
      "sampler": 0,
      "source": 2
    }
  ]
}
