{
    "asset" : {
        "generator" : "Khronos glTF Blender I/O v3.2.43",
        "version" : "2.0"
    },
    "scene" : 0,
    "scenes" : [
        {
            "name" : "Scene",
            "nodes" : [
                2
            ]
        }
    ],
    "nodes" : [
        {
            "mesh" : 0,
            "name" : "Object_21.001",
            "translation" : [
                0,
                -0.5163178443908691,
                0.05762799456715584
            ]
        },
        {
            "children" : [
                0
            ],
            "name" : "SceneFinal.obj.cleaner.materialmerger.gles"
        },
        {
            "children" : [
                1
            ],
            "name" : "Sketchfab_model",
            "rotation" : [
                -0.70710688829422,
                0,
                0,
                0.7071066498756409
            ]
        }
    ],
    "animations" : [
        {
            "channels" : [
                {
                    "sampler" : 0,
                    "target" : {
                        "node" : 0,
                        "path" : "translation"
                    }
                },
                {
                    "sampler" : 1,
                    "target" : {
                        "node" : 0,
                        "path" : "rotation"
                    }
                },
                {
                    "sampler" : 2,
                    "target" : {
                        "node" : 0,
                        "path" : "scale"
                    }
                }
            ],
            "name" : "ring",
            "samplers" : [
                {
                    "input" : 4,
                    "interpolation" : "LINEAR",
                    "output" : 5
                },
                {
                    "input" : 4,
                    "interpolation" : "LINEAR",
                    "output" : 6
                },
                {
                    "input" : 4,
                    "interpolation" : "LINEAR",
                    "output" : 7
                }
            ]
        }
    ],
    "materials" : [
        {
            "doubleSided" : true,
            "name" : "Telephone",
            "normalTexture" : {
                "index" : 0
            },
            "pbrMetallicRoughness" : {
                "baseColorTexture" : {
                    "index" : 1
                },
                "metallicFactor" : 0,
                "metallicRoughnessTexture" : {
                    "index" : 2
                }
            }
        }
    ],
    "meshes" : [
        {
            "name" : "Object_19.001",
            "primitives" : [
                {
                    "attributes" : {
                        "POSITION" : 0,
                        "NORMAL" : 1,
                        "TEXCOORD_0" : 2
                    },
                    "indices" : 3,
                    "material" : 0
                }
            ]
        }
    ],
    "textures" : [
        {
            "sampler" : 0,
            "source" : 0
        },
        {
            "sampler" : 0,
            "source" : 1
        },
        {
            "sampler" : 0,
            "source" : 2
        }
    ],
    "images" : [
        {
            "bufferView" : 4,
            "mimeType" : "image/png",
            "name" : "Image_29"
        },
        {
            "bufferView" : 5,
            "mimeType" : "image/png",
            "name" : "Image_30"
        },
        {
            "bufferView" : 6,
            "mimeType" : "image/png",
            "name" : "Image_31"
        }
    ],
    "accessors" : [
        {
            "bufferView" : 0,
            "componentType" : 5126,
            "count" : 281,
            "max" : [
                0.6617838144302368,
                0.24373292922973633,
                0.14102411270141602
            ],
            "min" : [
                -0.6617852449417114,
                -0.24373102188110352,
                -0.07767176628112793
            ],
            "type" : "VEC3"
        },
        {
            "bufferView" : 1,
            "componentType" : 5126,
            "count" : 281,
            "type" : "VEC3"
        },
        {
            "bufferView" : 2,
            "componentType" : 5126,
            "count" : 281,
            "type" : "VEC2"
        },
        {
            "bufferView" : 3,
            "componentType" : 5123,
            "count" : 1296,
            "type" : "SCALAR"
        },
        {
            "bufferView" : 7,
            "componentType" : 5126,
            "count" : 82,
            "max" : [
                3.4583333333333335
            ],
            "min" : [
                0.08333333333333333
            ],
            "type" : "SCALAR"
        },
        {
            "bufferView" : 8,
            "componentType" : 5126,
            "count" : 82,
            "type" : "VEC3"
        },
        {
            "bufferView" : 9,
            "componentType" : 5126,
            "count" : 82,
            "type" : "VEC4"
        },
        {
            "bufferView" : 10,
            "componentType" : 5126,
            "count" : 82,
            "type" : "VEC3"
        }
    ],
    "bufferViews" : [
        {
            "buffer" : 0,
            "byteLength" : 3372,
            "byteOffset" : 0
        },
        {
            "buffer" : 0,
            "byteLength" : 3372,
            "byteOffset" : 3372
        },
        {
            "buffer" : 0,
            "byteLength" : 2248,
            "byteOffset" : 6744
        },
        {
            "buffer" : 0,
            "byteLength" : 2592,
            "byteOffset" : 8992
        },
        {
            "buffer" : 0,
            "byteLength" : 18412,
            "byteOffset" : 11584
        },
        {
            "buffer" : 0,
            "byteLength" : 168790,
            "byteOffset" : 29996
        },
        {
            "buffer" : 0,
            "byteLength" : 209579,
            "byteOffset" : 198788
        },
        {
            "buffer" : 0,
            "byteLength" : 328,
            "byteOffset" : 408368
        },
        {
            "buffer" : 0,
            "byteLength" : 984,
            "byteOffset" : 408696
        },
        {
            "buffer" : 0,
            "byteLength" : 1312,
            "byteOffset" : 409680
        },
        {
            "buffer" : 0,
            "byteLength" : 984,
            "byteOffset" : 410992
        }
    ],
    "samplers" : [
        {
            "magFilter" : 9729,
            "minFilter" : 9987
        }
    ],
    "buffers" : [
        {
            "byteLength" : 411976,
            "uri" : "data:application/octet-stream;base64,"
        }
    ]
}
