{
    "asset" : {
        "generator" : "Khronos glTF Blender I/O v3.2.43",
        "version" : "2.0"
    },
    "scene" : 0,
    "scenes" : [
        {
            "name" : "Scene",
            "nodes" : [
                2
            ]
        }
    ],
    "nodes" : [
        {
            "mesh" : 0,
            "name" : "Object_21"
        },
        {
            "children" : [
                0
            ],
            "name" : "SceneFinal.obj.cleaner.materialmerger.gles"
        },
        {
            "children" : [
                1
            ],
            "name" : "Sketchfab_model",
            "rotation" : [
                -0.70710688829422,
                0,
                0,
                0.7071066498756409
            ]
        }
    ],
    "materials" : [
        {
            "doubleSided" : true,
            "name" : "Telephone",
            "normalTexture" : {
                "index" : 0
            },
            "pbrMetallicRoughness" : {
                "baseColorTexture" : {
                    "index" : 1
                },
                "metallicFactor" : 0,
                "metallicRoughnessTexture" : {
                    "index" : 2
                }
            }
        }
    ],
    "meshes" : [
        {
            "name" : "Object_19",
            "primitives" : [
                {
                    "attributes" : {
                        "POSITION" : 0,
                        "NORMAL" : 1,
                        "TEXCOORD_0" : 2
                    },
                    "indices" : 3,
                    "material" : 0
                }
            ]
        }
    ],
    "textures" : [
        {
            "sampler" : 0,
            "source" : 0
        },
        {
            "sampler" : 0,
            "source" : 1
        },
        {
            "sampler" : 0,
            "source" : 2
        }
    ],
    "images" : [
        {
            "bufferView" : 4,
            "mimeType" : "image/png",
            "name" : "Image_29"
        },
        {
            "bufferView" : 5,
            "mimeType" : "image/png",
            "name" : "Image_30"
        },
        {
            "bufferView" : 6,
            "mimeType" : "image/png",
            "name" : "Image_31"
        }
    ],
    "accessors" : [
        {
            "bufferView" : 0,
            "componentType" : 5126,
            "count" : 1687,
            "max" : [
                0.676374077796936,
                0.5513827800750732,
                0.07359910011291504
            ],
            "min" : [
                -0.6658158898353577,
                -0.7908060550689697,
                -0.27889490127563477
            ],
            "type" : "VEC3"
        },
        {
            "bufferView" : 1,
            "componentType" : 5126,
            "count" : 1687,
            "type" : "VEC3"
        },
        {
            "bufferView" : 2,
            "componentType" : 5126,
            "count" : 1687,
            "type" : "VEC2"
        },
        {
            "bufferView" : 3,
            "componentType" : 5123,
            "count" : 2502,
            "type" : "SCALAR"
        }
    ],
    "bufferViews" : [
        {
            "buffer" : 0,
            "byteLength" : 20244,
            "byteOffset" : 0
        },
        {
            "buffer" : 0,
            "byteLength" : 20244,
            "byteOffset" : 20244
        },
        {
            "buffer" : 0,
            "byteLength" : 13496,
            "byteOffset" : 40488
        },
        {
            "buffer" : 0,
            "byteLength" : 5004,
            "byteOffset" : 53984
        },
        {
            "buffer" : 0,
            "byteLength" : 18412,
            "byteOffset" : 58988
        },
        {
            "buffer" : 0,
            "byteLength" : 168790,
            "byteOffset" : 77400
        },
        {
            "buffer" : 0,
            "byteLength" : 209579,
            "byteOffset" : 246192
        }
    ],
    "samplers" : [
        {
            "magFilter" : 9729,
            "minFilter" : 9987
        }
    ],
    "buffers" : [
        {
            "byteLength" : 455772,
            "uri" : "data:application/octet-stream;base64,"
        }
    ]
}
