{
    "asset" : {
        "generator" : "Khronos glTF Blender I/O v3.2.43",
        "version" : "2.0"
    },
    "scene" : 0,
    "scenes" : [
        {
            "name" : "Scene",
            "nodes" : [
                0
            ]
        }
    ],
    "nodes" : [
        {
            "mesh" : 0,
            "name" : "Text",
            "rotation" : [
                0,
                -0.7071068286895752,
                0.7071068286895752,
                1.1520233300643667e-07
            ]
        }
    ],
    "materials" : [
        {
            "doubleSided" : true,
            "emissiveFactor" : [
                1,
                0,
                0
            ],
            "name" : "Emission",
            "pbrMetallicRoughness" : {
                "baseColorFactor" : [
                    0,
                    0,
                    0,
                    1
                ]
            }
        }
    ],
    "meshes" : [
        {
            "name" : "Text",
            "primitives" : [
                {
                    "attributes" : {
                        "POSITION" : 0,
                        "NORMAL" : 1,
                        "TEXCOORD_0" : 2
                    },
                    "indices" : 3,
                    "material" : 0
                }
            ]
        }
    ],
    "accessors" : [
        {
            "bufferView" : 0,
            "componentType" : 5126,
            "count" : 19996,
            "max" : [
                4.262523651123047,
                0.03999999910593033,
                0.3190230131149292
            ],
            "min" : [
                -4.289520740509033,
                -0.03999999910593033,
                -0.40106305480003357
            ],
            "type" : "VEC3"
        },
        {
            "bufferView" : 1,
            "componentType" : 5126,
            "count" : 19996,
            "type" : "VEC3"
        },
        {
            "bufferView" : 2,
            "componentType" : 5126,
            "count" : 19996,
            "type" : "VEC2"
        },
        {
            "bufferView" : 3,
            "componentType" : 5123,
            "count" : 76140,
            "type" : "SCALAR"
        }
    ],
    "bufferViews" : [
        {
            "buffer" : 0,
            "byteLength" : 239952,
            "byteOffset" : 0
        },
        {
            "buffer" : 0,
            "byteLength" : 239952,
            "byteOffset" : 239952
        },
        {
            "buffer" : 0,
            "byteLength" : 159968,
            "byteOffset" : 479904
        },
        {
            "buffer" : 0,
            "byteLength" : 152280,
            "byteOffset" : 639872
        }
    ],
    "buffers" : [
        {
            "byteLength" : 792152,
            "uri" : "data:application/octet-stream;base64,"
        }
    ]
}
