{
    "asset" : {
        "generator" : "Khronos glTF Blender I/O v3.2.43",
        "version" : "2.0"
    },
    "scene" : 0,
    "scenes" : [
        {
            "name" : "Scene",
            "nodes" : [
                0
            ]
        }
    ],
    "nodes" : [
        {
            "mesh" : 0,
            "name" : "Text",
            "translation" : [
                0.2139124870300293,
                0,
                0
            ]
        }
    ],
    "animations" : [
        {
            "channels" : [
                {
                    "sampler" : 0,
                    "target" : {
                        "node" : 0,
                        "path" : "translation"
                    }
                }
            ],
            "name" : "TextAction",
            "samplers" : [
                {
                    "input" : 4,
                    "interpolation" : "STEP",
                    "output" : 5
                }
            ]
        }
    ],
    "materials" : [
        {
            "doubleSided" : true,
            "emissiveFactor" : [
                1,
                0,
                0
            ],
            "name" : "Material.001",
            "pbrMetallicRoughness" : {
                "baseColorFactor" : [
                    0,
                    0,
                    0,
                    1
                ]
            }
        }
    ],
    "meshes" : [
        {
            "name" : "Text",
            "primitives" : [
                {
                    "attributes" : {
                        "POSITION" : 0,
                        "NORMAL" : 1,
                        "TEXCOORD_0" : 2
                    },
                    "indices" : 3,
                    "material" : 0
                }
            ]
        }
    ],
    "accessors" : [
        {
            "bufferView" : 0,
            "componentType" : 5126,
            "count" : 33932,
            "max" : [
                8.370025634765625,
                0.10999999940395355,
                0.5400000214576721
            ],
            "min" : [
                -8.340001106262207,
                -0.10999999940395355,
                -0.40132638812065125
            ],
            "type" : "VEC3"
        },
        {
            "bufferView" : 1,
            "componentType" : 5126,
            "count" : 33932,
            "type" : "VEC3"
        },
        {
            "bufferView" : 2,
            "componentType" : 5126,
            "count" : 33932,
            "type" : "VEC2"
        },
        {
            "bufferView" : 3,
            "componentType" : 5123,
            "count" : 128712,
            "type" : "SCALAR"
        },
        {
            "bufferView" : 4,
            "componentType" : 5126,
            "count" : 1,
            "max" : [
                0.125
            ],
            "min" : [
                0.125
            ],
            "type" : "SCALAR"
        },
        {
            "bufferView" : 5,
            "componentType" : 5126,
            "count" : 1,
            "type" : "VEC3"
        }
    ],
    "bufferViews" : [
        {
            "buffer" : 0,
            "byteLength" : 407184,
            "byteOffset" : 0
        },
        {
            "buffer" : 0,
            "byteLength" : 407184,
            "byteOffset" : 407184
        },
        {
            "buffer" : 0,
            "byteLength" : 271456,
            "byteOffset" : 814368
        },
        {
            "buffer" : 0,
            "byteLength" : 257424,
            "byteOffset" : 1085824
        },
        {
            "buffer" : 0,
            "byteLength" : 4,
            "byteOffset" : 1343248
        },
        {
            "buffer" : 0,
            "byteLength" : 12,
            "byteOffset" : 1343252
        }
    ],
    "buffers" : [
        {
            "byteLength" : 1343264,
            "uri" : "data:application/octet-stream;base64,"
        }
    ]
}
