{
    "asset" : {
        "generator" : "Khronos glTF Blender I/O v3.2.43",
        "version" : "2.0"
    },
    "scene" : 0,
    "scenes" : [
        {
            "name" : "Scene",
            "nodes" : [
                0,
                1
            ]
        }
    ],
    "nodes" : [
        {
            "mesh" : 0,
            "name" : "Text.002",
            "translation" : [
                20.398250579833984,
                -0.014277162961661816,
                0
            ]
        },
        {
            "mesh" : 1,
            "name" : "Plane.002",
            "scale" : [
                5.751185417175293,
                3.828533172607422,
                1.210032343864441
            ],
            "translation" : [
                20.398250579833984,
                -0.04892261326313019,
                0
            ]
        }
    ],
    "materials" : [
        {
            "doubleSided" : true,
            "name" : "Material.001",
            "pbrMetallicRoughness" : {
                "baseColorFactor" : [
                    0.031063532456755638,
                    0.031063532456755638,
                    0.031063532456755638,
                    1
                ],
                "metallicFactor" : 0,
                "roughnessFactor" : 0.5
            }
        },
        {
            "doubleSided" : true,
            "name" : "Material.002",
            "pbrMetallicRoughness" : {
                "metallicFactor" : 0,
                "roughnessFactor" : 0.5
            }
        }
    ],
    "meshes" : [
        {
            "name" : "Text.002",
            "primitives" : [
                {
                    "attributes" : {
                        "POSITION" : 0,
                        "NORMAL" : 1,
                        "TEXCOORD_0" : 2
                    },
                    "indices" : 3,
                    "material" : 0
                }
            ]
        },
        {
            "name" : "Plane.002",
            "primitives" : [
                {
                    "attributes" : {
                        "POSITION" : 4,
                        "NORMAL" : 5,
                        "TEXCOORD_0" : 6
                    },
                    "indices" : 7,
                    "material" : 1
                }
            ]
        }
    ],
    "accessors" : [
        {
            "bufferView" : 0,
            "componentType" : 5126,
            "count" : 30450,
            "max" : [
                4.193000793457031,
                0.10999999940395355,
                0.9280000329017639
            ],
            "min" : [
                -4.129000186920166,
                -0.10999999940395355,
                -0.9010062217712402
            ],
            "type" : "VEC3"
        },
        {
            "bufferView" : 1,
            "componentType" : 5126,
            "count" : 30450,
            "type" : "VEC3"
        },
        {
            "bufferView" : 2,
            "componentType" : 5126,
            "count" : 30450,
            "type" : "VEC2"
        },
        {
            "bufferView" : 3,
            "componentType" : 5123,
            "count" : 115740,
            "type" : "SCALAR"
        },
        {
            "bufferView" : 4,
            "componentType" : 5126,
            "count" : 4,
            "max" : [
                1,
                0,
                1
            ],
            "min" : [
                -1,
                0,
                -1
            ],
            "type" : "VEC3"
        },
        {
            "bufferView" : 5,
            "componentType" : 5126,
            "count" : 4,
            "type" : "VEC3"
        },
        {
            "bufferView" : 6,
            "componentType" : 5126,
            "count" : 4,
            "type" : "VEC2"
        },
        {
            "bufferView" : 7,
            "componentType" : 5123,
            "count" : 6,
            "type" : "SCALAR"
        }
    ],
    "bufferViews" : [
        {
            "buffer" : 0,
            "byteLength" : 365400,
            "byteOffset" : 0
        },
        {
            "buffer" : 0,
            "byteLength" : 365400,
            "byteOffset" : 365400
        },
        {
            "buffer" : 0,
            "byteLength" : 243600,
            "byteOffset" : 730800
        },
        {
            "buffer" : 0,
            "byteLength" : 231480,
            "byteOffset" : 974400
        },
        {
            "buffer" : 0,
            "byteLength" : 48,
            "byteOffset" : 1205880
        },
        {
            "buffer" : 0,
            "byteLength" : 48,
            "byteOffset" : 1205928
        },
        {
            "buffer" : 0,
            "byteLength" : 32,
            "byteOffset" : 1205976
        },
        {
            "buffer" : 0,
            "byteLength" : 12,
            "byteOffset" : 1206008
        }
    ],
    "buffers" : [
        {
            "byteLength" : 1206020,
            "uri" : "data:application/octet-stream;base64,"
        }
    ]
}
