{
    "asset" : {
        "generator" : "Khronos glTF Blender I/O v3.2.43",
        "version" : "2.0"
    },
    "scene" : 0,
    "scenes" : [
        {
            "name" : "Scene",
            "nodes" : [
                2
            ]
        }
    ],
    "nodes" : [
        {
            "mesh" : 0,
            "name" : "Text",
            "rotation" : [
                0,
                0,
                -0.7071074843406677,
                0.7071060538291931
            ],
            "scale" : [
                0.06856308877468109,
                1,
                1
            ],
            "translation" : [
                0.0007286469917744398,
                0.47513172030448914,
                0.018618280068039894
            ]
        },
        {
            "name" : "Bone",
            "rotation" : [
                -3.1618978914839483e-22,
                5.135635954282589e-24,
                -3.702498905835827e-29,
                1
            ],
            "translation" : [
                -8.753886504564434e-12,
                -5.798431179648844e-11,
                1.0766143532237038e-10
            ]
        },
        {
            "children" : [
                0,
                1
            ],
            "name" : "Armature",
            "rotation" : [
                0.5,
                0.5,
                -0.5,
                0.5
            ],
            "scale" : [
                1,
                14.585107803344727,
                1
            ],
            "translation" : [
                -2.9001030921936035,
                0.01861858367919922,
                0.0007289499044418335
            ]
        }
    ],
    "animations" : [
        {
            "channels" : [
                {
                    "sampler" : 0,
                    "target" : {
                        "node" : 1,
                        "path" : "translation"
                    }
                },
                {
                    "sampler" : 1,
                    "target" : {
                        "node" : 1,
                        "path" : "rotation"
                    }
                },
                {
                    "sampler" : 2,
                    "target" : {
                        "node" : 1,
                        "path" : "scale"
                    }
                },
                {
                    "sampler" : 3,
                    "target" : {
                        "node" : 2,
                        "path" : "translation"
                    }
                },
                {
                    "sampler" : 4,
                    "target" : {
                        "node" : 2,
                        "path" : "rotation"
                    }
                },
                {
                    "sampler" : 5,
                    "target" : {
                        "node" : 2,
                        "path" : "scale"
                    }
                }
            ],
            "name" : "ArmatureAction",
            "samplers" : [
                {
                    "input" : 4,
                    "interpolation" : "LINEAR",
                    "output" : 5
                },
                {
                    "input" : 4,
                    "interpolation" : "LINEAR",
                    "output" : 6
                },
                {
                    "input" : 4,
                    "interpolation" : "LINEAR",
                    "output" : 7
                },
                {
                    "input" : 4,
                    "interpolation" : "LINEAR",
                    "output" : 8
                },
                {
                    "input" : 4,
                    "interpolation" : "LINEAR",
                    "output" : 9
                },
                {
                    "input" : 4,
                    "interpolation" : "LINEAR",
                    "output" : 10
                }
            ]
        },
        {
            "channels" : [
                {
                    "sampler" : 0,
                    "target" : {
                        "node" : 0,
                        "path" : "translation"
                    }
                },
                {
                    "sampler" : 1,
                    "target" : {
                        "node" : 0,
                        "path" : "rotation"
                    }
                },
                {
                    "sampler" : 2,
                    "target" : {
                        "node" : 0,
                        "path" : "scale"
                    }
                }
            ],
            "name" : "TextAction",
            "samplers" : [
                {
                    "input" : 11,
                    "interpolation" : "STEP",
                    "output" : 12
                },
                {
                    "input" : 11,
                    "interpolation" : "STEP",
                    "output" : 13
                },
                {
                    "input" : 11,
                    "interpolation" : "STEP",
                    "output" : 14
                }
            ]
        }
    ],
    "materials" : [
        {
            "doubleSided" : true,
            "name" : "Material.001",
            "pbrMetallicRoughness" : {}
        }
    ],
    "meshes" : [
        {
            "name" : "Text",
            "primitives" : [
                {
                    "attributes" : {
                        "POSITION" : 0,
                        "NORMAL" : 1,
                        "TEXCOORD_0" : 2
                    },
                    "indices" : 3,
                    "material" : 0
                }
            ]
        }
    ],
    "accessors" : [
        {
            "bufferView" : 0,
            "componentType" : 5126,
            "count" : 18038,
            "max" : [
                7.287834644317627,
                0.10999999940395355,
                0.31900668144226074
            ],
            "min" : [
                -7.267000198364258,
                -0.10999999940395355,
                -0.3920000195503235
            ],
            "type" : "VEC3"
        },
        {
            "bufferView" : 1,
            "componentType" : 5126,
            "count" : 18038,
            "type" : "VEC3"
        },
        {
            "bufferView" : 2,
            "componentType" : 5126,
            "count" : 18038,
            "type" : "VEC2"
        },
        {
            "bufferView" : 3,
            "componentType" : 5123,
            "count" : 68808,
            "type" : "SCALAR"
        },
        {
            "bufferView" : 4,
            "componentType" : 5126,
            "count" : 59,
            "max" : [
                2.4583333333333335
            ],
            "min" : [
                0.041666666666666664
            ],
            "type" : "SCALAR"
        },
        {
            "bufferView" : 5,
            "componentType" : 5126,
            "count" : 59,
            "type" : "VEC3"
        },
        {
            "bufferView" : 6,
            "componentType" : 5126,
            "count" : 59,
            "type" : "VEC4"
        },
        {
            "bufferView" : 7,
            "componentType" : 5126,
            "count" : 59,
            "type" : "VEC3"
        },
        {
            "bufferView" : 8,
            "componentType" : 5126,
            "count" : 59,
            "type" : "VEC3"
        },
        {
            "bufferView" : 9,
            "componentType" : 5126,
            "count" : 59,
            "type" : "VEC4"
        },
        {
            "bufferView" : 10,
            "componentType" : 5126,
            "count" : 59,
            "type" : "VEC3"
        },
        {
            "bufferView" : 11,
            "componentType" : 5126,
            "count" : 1,
            "max" : [
                0.125
            ],
            "min" : [
                0.125
            ],
            "type" : "SCALAR"
        },
        {
            "bufferView" : 12,
            "componentType" : 5126,
            "count" : 1,
            "type" : "VEC3"
        },
        {
            "bufferView" : 13,
            "componentType" : 5126,
            "count" : 1,
            "type" : "VEC4"
        },
        {
            "bufferView" : 14,
            "componentType" : 5126,
            "count" : 1,
            "type" : "VEC3"
        }
    ],
    "bufferViews" : [
        {
            "buffer" : 0,
            "byteLength" : 216456,
            "byteOffset" : 0
        },
        {
            "buffer" : 0,
            "byteLength" : 216456,
            "byteOffset" : 216456
        },
        {
            "buffer" : 0,
            "byteLength" : 144304,
            "byteOffset" : 432912
        },
        {
            "buffer" : 0,
            "byteLength" : 137616,
            "byteOffset" : 577216
        },
        {
            "buffer" : 0,
            "byteLength" : 236,
            "byteOffset" : 714832
        },
        {
            "buffer" : 0,
            "byteLength" : 708,
            "byteOffset" : 715068
        },
        {
            "buffer" : 0,
            "byteLength" : 944,
            "byteOffset" : 715776
        },
        {
            "buffer" : 0,
            "byteLength" : 708,
            "byteOffset" : 716720
        },
        {
            "buffer" : 0,
            "byteLength" : 708,
            "byteOffset" : 717428
        },
        {
            "buffer" : 0,
            "byteLength" : 944,
            "byteOffset" : 718136
        },
        {
            "buffer" : 0,
            "byteLength" : 708,
            "byteOffset" : 719080
        },
        {
            "buffer" : 0,
            "byteLength" : 4,
            "byteOffset" : 719788
        },
        {
            "buffer" : 0,
            "byteLength" : 12,
            "byteOffset" : 719792
        },
        {
            "buffer" : 0,
            "byteLength" : 16,
            "byteOffset" : 719804
        },
        {
            "buffer" : 0,
            "byteLength" : 12,
            "byteOffset" : 719820
        }
    ],
    "buffers" : [
        {
            "byteLength" : 719832,
            "uri" : "data:application/octet-stream;base64,"
        }
    ]
}
