{
    "asset" : {
        "generator" : "Khronos glTF Blender I/O v3.2.43",
        "version" : "2.0"
    },
    "scene" : 0,
    "scenes" : [
        {
            "name" : "Scene",
            "nodes" : [
                4
            ]
        }
    ],
    "nodes" : [
        {
            "mesh" : 0,
            "name" : "arms_arms1_0"
        },
        {
            "children" : [
                0
            ],
            "name" : "arms",
            "rotation" : [
                -0.2488698810338974,
                0.062285467982292175,
                0.18472303450107574,
                0.9487158060073853
            ],
            "translation" : [
                -5.792520523071289,
                0.8514086008071899,
                -2.833836555480957
            ]
        },
        {
            "children" : [
                1
            ],
            "name" : "RootNode"
        },
        {
            "children" : [
                2
            ],
            "name" : "b104c81fdf1c4456b6a8104d6d4af77d.fbx",
            "rotation" : [
                0.7071068286895752,
                0,
                0,
                0.7071067094802856
            ]
        },
        {
            "children" : [
                3
            ],
            "name" : "Sketchfab_model",
            "rotation" : [
                -0.5054495334625244,
                0,
                0,
                0.8628562092781067
            ],
            "scale" : [
                0.05000000074505806,
                0.05000000074505806,
                0.05000000074505806
            ]
        }
    ],
    "materials" : [
        {
            "name" : "arms1",
            "occlusionTexture" : {
                "index" : 0,
                "strength" : 0.9041539430618286
            },
            "pbrMetallicRoughness" : {}
        }
    ],
    "meshes" : [
        {
            "name" : "arms_arms1_0",
            "primitives" : [
                {
                    "attributes" : {
                        "POSITION" : 0,
                        "NORMAL" : 1,
                        "TEXCOORD_0" : 2,
                        "TEXCOORD_1" : 3,
                        "TEXCOORD_2" : 4
                    },
                    "indices" : 5,
                    "material" : 0
                }
            ]
        }
    ],
    "textures" : [
        {
            "sampler" : 0,
            "source" : 0
        }
    ],
    "images" : [
        {
            "bufferView" : 6,
            "mimeType" : "image/png",
            "name" : "arms1_occlusion"
        }
    ],
    "accessors" : [
        {
            "bufferView" : 0,
            "componentType" : 5126,
            "count" : 1996,
            "max" : [
                19.75639533996582,
                21.04637908935547,
                118.3836441040039
            ],
            "min" : [
                -15.110820770263672,
                -16.180320739746094,
                -22.109163284301758
            ],
            "type" : "VEC3"
        },
        {
            "bufferView" : 1,
            "componentType" : 5126,
            "count" : 1996,
            "type" : "VEC3"
        },
        {
            "bufferView" : 2,
            "componentType" : 5126,
            "count" : 1996,
            "type" : "VEC2"
        },
        {
            "bufferView" : 3,
            "componentType" : 5126,
            "count" : 1996,
            "type" : "VEC2"
        },
        {
            "bufferView" : 4,
            "componentType" : 5126,
            "count" : 1996,
            "type" : "VEC2"
        },
        {
            "bufferView" : 5,
            "componentType" : 5123,
            "count" : 10599,
            "type" : "SCALAR"
        }
    ],
    "bufferViews" : [
        {
            "buffer" : 0,
            "byteLength" : 23952,
            "byteOffset" : 0
        },
        {
            "buffer" : 0,
            "byteLength" : 23952,
            "byteOffset" : 23952
        },
        {
            "buffer" : 0,
            "byteLength" : 15968,
            "byteOffset" : 47904
        },
        {
            "buffer" : 0,
            "byteLength" : 15968,
            "byteOffset" : 63872
        },
        {
            "buffer" : 0,
            "byteLength" : 15968,
            "byteOffset" : 79840
        },
        {
            "buffer" : 0,
            "byteLength" : 21198,
            "byteOffset" : 95808
        },
        {
            "buffer" : 0,
            "byteLength" : 1390520,
            "byteOffset" : 117008
        }
    ],
    "samplers" : [
        {
            "magFilter" : 9729,
            "minFilter" : 9987
        }
    ],
    "buffers" : [
        {
            "byteLength" : 1507528,
            "uri" : "data:application/octet-stream;base64,"
        }
    ]
}
